<svg width="69" height="66" viewBox="0 0 69 66" fill="none" xmlns="http://www.w3.org/2000/svg">
<path d="M19.2156 21.8325L24.3878 24.0103C24.4353 24.0303 24.4802 24.056 24.5214 24.087C25.0155 24.4576 25.6925 23.9697 25.4972 23.3837L25.2972 22.7837L25.0701 22.178C24.3892 20.3624 24.0404 18.439 24.0404 16.4999V13.5902C24.0404 12.1925 24.3172 10.8087 24.8548 9.5185L24.8889 9.43648C25.7001 7.48975 27.089 5.8388 28.8683 4.70655C30.1039 3.92022 31.493 3.40636 32.943 3.19922L33.4725 3.12358C35.5247 2.83041 37.6435 3.10715 39.5571 3.90447C40.9171 4.47117 42.171 5.30632 43.2129 6.34818C44.9094 8.0447 46.0208 10.238 46.3856 12.6093L46.5044 13.3817C46.6093 14.0631 46.6619 14.7516 46.6619 15.441C46.6619 16.6994 46.4865 17.9516 46.1408 19.1615L45.8241 20.2702L44.6144 22.992C44.5185 23.2078 44.7927 23.3961 44.9597 23.2291C44.9773 23.2116 44.9978 23.1972 45.0203 23.1867L51.27 20.2702L55.4895 18.7632C56.5783 18.3743 57.7258 18.1756 58.8819 18.1756H59.4708C61.2198 18.1756 62.9238 18.7297 64.3382 19.7584C65.9091 20.9009 67.0281 22.5595 67.4992 24.444L67.5464 24.6326C68.1214 26.9329 67.7451 29.3679 66.5024 31.3872L66.137 31.9811C65.448 33.1007 64.5543 34.0805 63.5027 34.8692L62.9255 35.3021C61.049 36.7095 58.8544 37.6324 56.5361 37.989L56.1019 38.0558C55.1183 38.2071 54.1203 38.2418 53.1285 38.1592L49.7189 37.875C49.6374 37.8683 49.5557 37.884 49.4826 37.9206C49.1681 38.0778 49.1511 38.5203 49.4526 38.7012L52.7604 40.6859C52.8837 40.7599 53.0006 40.8441 53.1097 40.9377L54.1264 41.8092C55.2856 42.8027 56.2653 43.9882 57.0227 45.3137C57.3762 45.9322 57.6794 46.5781 57.9296 47.2452L59.0674 50.2793C59.7185 52.0158 59.8262 53.91 59.3764 55.7092C58.7496 58.2164 57.0903 60.3424 54.8099 61.5586C53.0564 62.4938 51.0459 62.832 49.083 62.5221L46.8976 62.177C45.0923 61.892 43.384 61.1696 41.9218 60.073C40.0983 58.7054 38.7353 56.8142 38.0145 54.6518L37.4807 53.0506C37.4575 52.9808 37.4401 52.9091 37.4289 52.8363L36.8094 48.8091C36.7583 48.4769 36.2953 48.4377 36.189 48.7565L34.5133 54.2024L33.3136 56.8019C32.4464 58.6808 31.2143 60.3684 29.6889 61.7667L28.5209 62.8374C27.5028 63.7706 26.2815 64.454 24.9536 64.8334L23.9813 65.1112C22.1538 65.6333 20.1903 65.3481 18.5869 64.3278C17.2407 63.4711 16.2476 62.1586 15.7891 60.6302L15.5309 59.7697C15.3397 59.1322 15.2192 58.4755 15.1718 57.8117L15.1147 57.0115C14.924 54.3419 15.3928 51.6665 16.4797 49.2209L16.4999 49.1754L17.4068 46.9082C17.9156 45.6361 18.6365 44.4595 19.5387 43.4284L21.0339 41.7197C21.0828 41.6637 21.1422 41.6178 21.2087 41.5846C21.7047 41.3366 21.5938 40.5988 21.0468 40.5076L20.336 40.3892C20.2922 40.3818 20.2478 40.3782 20.2034 40.3782H17.4713C16.2672 40.3782 15.0652 40.2787 13.8775 40.0807L12.4947 39.8503C11.2619 39.6448 10.0667 39.2562 8.94885 38.6972L8.33699 38.3913C6.55638 37.501 5.07385 36.111 4.07076 34.3914L3.84509 34.0046C3.07922 32.6916 2.67566 31.1781 2.67566 29.6582C2.67566 27.9258 3.20851 26.2116 4.20193 24.7925C5.12039 23.4804 6.39309 22.4566 7.87149 21.8406L8.58497 21.5433C9.93831 20.9794 11.3899 20.6891 12.856 20.6891H13.5533C15.4981 20.6891 17.4232 21.0778 19.2156 21.8325Z" fill="#353535" stroke="#353535" stroke-width="1.25675"/>
<path d="M33.0194 31.1601L33.5769 30.6722C34.4506 29.9077 35.5722 29.4863 36.7332 29.4863C37.4773 29.4863 38.2111 29.6596 38.8767 29.9923L39.2139 30.161C39.9731 30.5405 40.6029 31.1363 41.024 31.8732C41.6746 33.0119 41.7699 34.3852 41.2829 35.6028L41.1785 35.8638C40.6687 37.1384 39.6457 38.1393 38.3603 38.6213L37.9466 38.7765C37.3384 39.0046 36.6941 39.1214 36.0445 39.1214H35.3234C34.0264 39.1214 32.8091 38.495 32.0552 37.4395C31.4801 36.6343 31.2224 35.6451 31.3317 34.6616L31.3698 34.3185C31.5056 33.0965 32.0941 31.9697 33.0194 31.1601Z" fill="#353535" stroke="#353535" stroke-width="1.25675"/>
<path d="M17.5399 20.1569L22.7122 22.3347C22.7597 22.3546 22.8045 22.3804 22.8457 22.4113C23.3399 22.7819 24.0168 22.294 23.8215 21.708L23.6215 21.108L23.3944 20.5024C22.7135 18.6867 22.3648 16.7634 22.3648 14.8243V11.9145C22.3648 10.5169 22.6415 9.13301 23.1791 7.84284L23.2133 7.76082C24.0244 5.81409 25.4134 4.16314 27.1926 3.03089C28.4283 2.24456 29.8174 1.7307 31.2673 1.52356L31.7968 1.44792C33.849 1.15475 35.9678 1.43149 37.8814 2.22881C39.2415 2.79551 40.4953 3.63066 41.5372 4.67252C43.2337 6.36904 44.3451 8.56231 44.71 10.9337L44.8288 11.706C44.9336 12.3875 44.9863 13.0759 44.9863 13.7653C44.9863 15.0237 44.8109 16.2759 44.4652 17.4859L44.1484 18.5945L42.9387 21.3163C42.8428 21.5321 43.1171 21.7205 43.2841 21.5535C43.3016 21.5359 43.3221 21.5216 43.3446 21.5111L49.5944 18.5945L53.8139 17.0875C54.9026 16.6987 56.0502 16.4999 57.2063 16.4999H57.7951C59.5441 16.4999 61.2481 17.054 62.6625 18.0827C64.2335 19.2252 65.3524 20.8839 65.8235 22.7683L65.8707 22.957C66.4458 25.2573 66.0694 27.6922 64.8268 29.7116L64.4613 30.3055C63.7723 31.425 62.8787 32.4048 61.827 33.1936L61.2498 33.6264C59.3733 35.0338 57.1787 35.9567 54.8604 36.3134L54.4262 36.3801C53.4426 36.5315 52.4446 36.5662 51.4529 36.4835L48.0432 36.1994C47.9618 36.1926 47.88 36.2083 47.8069 36.2449C47.4924 36.4021 47.4754 36.8447 47.7769 37.0256L51.0847 39.0103C51.208 39.0842 51.3249 39.1685 51.4341 39.2621L52.4508 40.1335C53.6099 41.1271 54.5896 42.3125 55.3471 43.638C55.7005 44.2566 56.0038 44.9025 56.2539 45.5695L57.3917 48.6036C58.0429 50.3401 58.1505 52.2343 57.7007 54.0335C57.0739 56.5408 55.4147 58.6667 53.1343 59.8829C51.3808 60.8181 49.3703 61.1564 47.4073 60.8464L45.222 60.5014C43.4166 60.2163 41.7083 59.494 40.2461 58.3973C38.4227 57.0297 37.0596 55.1386 36.3388 52.9762L35.8051 51.375C35.7818 51.3051 35.7645 51.2334 35.7533 51.1607L35.1337 47.1334C35.0826 46.8013 34.6196 46.762 34.5133 47.0808L32.8377 52.5268L31.6379 55.1263C30.7707 57.0051 29.5386 58.6928 28.0132 60.0911L26.8452 61.1617C25.8272 62.0949 24.6059 62.7783 23.278 63.1577L22.3056 63.4355C20.4782 63.9576 18.5147 63.6725 16.9113 62.6521C15.565 61.7954 14.5719 60.483 14.1134 58.9546L13.8552 58.094C13.664 57.4565 13.5436 56.7999 13.4962 56.136L13.439 55.3358C13.2483 52.6663 13.7171 49.9908 14.8041 47.5452L14.8243 47.4998L15.7312 45.2325C16.24 43.9604 16.9608 42.7839 17.863 41.7528L19.3582 40.044C19.4072 39.988 19.4665 39.9422 19.533 39.9089C20.0291 39.6609 19.9181 38.9231 19.3711 38.8319L18.6604 38.7135C18.6165 38.7062 18.5722 38.7025 18.5277 38.7025H15.7957C14.5916 38.7025 13.3895 38.603 12.2018 38.4051L10.819 38.1746C9.58622 37.9691 8.39106 37.5805 7.27319 37.0216L6.66133 36.7156C4.88072 35.8253 3.3982 34.4354 2.3951 32.7158L2.16943 32.3289C1.40356 31.016 1 29.5025 1 27.9825C1 26.2502 1.53285 24.536 2.52627 23.1168C3.44473 21.8047 4.71743 20.7809 6.19584 20.1649L6.90932 19.8676C8.26265 19.3037 9.71425 19.0134 11.1804 19.0134H11.8777C13.8224 19.0134 15.7476 19.4022 17.5399 20.1569Z" fill="#FFFFFC" stroke="#353535" stroke-width="1.25675"/>
<path d="M29.4377 40V26.9091H34.3468C35.3525 26.9091 36.1962 27.0838 36.878 27.4332C37.5641 27.7827 38.0819 28.2727 38.4313 28.9034C38.785 29.5298 38.9618 30.2607 38.9618 31.0959C38.9618 31.9354 38.7828 32.6641 38.4249 33.282C38.0712 33.8956 37.5492 34.3707 36.8588 34.7074C36.1685 35.0398 35.3205 35.206 34.3148 35.206H30.8184V33.2372H33.9952C34.5833 33.2372 35.0648 33.1562 35.4398 32.9943C35.8148 32.8281 36.0918 32.5874 36.2708 32.272C36.454 31.9524 36.5456 31.5604 36.5456 31.0959C36.5456 30.6314 36.454 30.2351 36.2708 29.907C36.0875 29.5746 35.8084 29.3232 35.4334 29.1527C35.0584 28.978 34.5748 28.8906 33.9824 28.8906H31.8091V40H29.4377ZM36.2005 34.0682L39.4412 40H36.7949L33.6117 34.0682H36.2005Z" fill="#353535"/>
</svg>
