<svg width="60" height="60" viewBox="0 0 60 60" fill="none" xmlns="http://www.w3.org/2000/svg">
<circle cx="30" cy="30" r="30" fill="white"/>
<circle cx="30" cy="30" r="24" stroke="black" stroke-width="2"/>
<path d="M24.6329 22.74H30.9329C32.4262 22.74 33.5996 23.1133 34.4529 23.86C35.3196 24.5933 35.7529 25.7067 35.7529 27.2C35.7529 28.4 35.4462 29.38 34.8329 30.14C34.5529 30.46 34.2596 30.6933 33.9529 30.84C33.6462 30.9867 33.3396 31.04 33.0329 31L32.9129 31.28C33.1129 31.4267 33.2662 31.5867 33.3729 31.76C33.4796 31.9333 33.5996 32.1733 33.7329 32.48L36.0729 38H33.3729L30.8529 31.76H27.1729V38H24.6329V22.74ZM30.5929 29.56C31.4596 29.56 32.1196 29.3667 32.5729 28.98C33.0262 28.58 33.2529 28.0133 33.2529 27.28C33.2529 26.5467 33.0196 25.9867 32.5529 25.6C32.0996 25.2133 31.4462 25.02 30.5929 25.02H27.1729V29.56H30.5929Z" fill="black"/>
</svg>
